solid StereoPSEyeCameraPlate
facet normal 0.0 1.11022302462516e-016 -1.0
outer loop
vertex 120.185026542342 42.6560017210435 4441.97698482513
vertex 125.185026542342 36.5960017210428 4441.97698482514
vertex 120.185026542342 -27.3439982789547 4441.97698482513
endloop
endfacet
facet normal 0.0 1.11022302462516e-016 -1.0
outer loop
vertex 125.185026542342 36.5960017210428 4441.97698482514
vertex 120.185026542342 42.6560017210435 4441.97698482513
vertex 290.185026542342 42.6560017210435 4441.97698482513
endloop
endfacet
facet normal 0.0 1.11022302462516e-016 -1.0
outer loop
vertex 125.185026542342 36.5960017210428 4441.97698482514
vertex 290.185026542342 42.6560017210435 4441.97698482513
vertex 285.185026542342 36.5960017210428 4441.97698482514
endloop
endfacet
facet normal 0.0 1.11022302462516e-016 -1.0
outer loop
vertex 285.185026542342 36.5960017210428 4441.97698482514
vertex 290.185026542342 42.6560017210435 4441.97698482513
vertex 285.185026542342 34.5960017210439 4441.97698482513
endloop
endfacet
facet normal 0.0 1.11022302462516e-016 -1.0
outer loop
vertex 285.185026542342 34.5960017210439 4441.97698482513
vertex 290.185026542342 42.6560017210435 4441.97698482513
vertex 285.185026542342 25.1660017210409 4441.97698482514
endloop
endfacet
facet normal 0.0 1.11022302462516e-016 -1.0
outer loop
vertex 285.185026542342 25.1660017210409 4441.97698482514
vertex 290.185026542342 42.6560017210435 4441.97698482513
vertex 285.185026542342 23.1660017210446 4441.97698482514
endloop
endfacet
facet normal 0.0 1.11022302462516e-016 -1.0
outer loop
vertex 285.185026542342 23.1660017210446 4441.97698482514
vertex 290.185026542342 42.6560017210435 4441.97698482513
vertex 285.185026542342 17.1660017210456 4441.97698482514
endloop
endfacet
facet normal 0.0 1.11022302462516e-016 -1.0
outer loop
vertex 285.185026542342 17.1660017210456 4441.97698482514
vertex 290.185026542342 42.6560017210435 4441.97698482513
vertex 285.185026542342 -1.85399827895536 4441.97698482514
endloop
endfacet
facet normal 0.0 1.11022302462516e-016 -1.0
outer loop
vertex 285.185026542342 -1.85399827895536 4441.97698482514
vertex 290.185026542342 42.6560017210435 4441.97698482513
vertex 285.185026542342 -7.85399827895147 4441.97698482513
endloop
endfacet
facet normal 0.0 1.11022302462516e-016 -1.0
outer loop
vertex 285.185026542342 -7.85399827895147 4441.97698482513
vertex 290.185026542342 42.6560017210435 4441.97698482513
vertex 285.185026542342 -9.85399827895318 4441.97698482513
endloop
endfacet
facet normal 0.0 1.11022302462516e-016 -1.0
outer loop
vertex 285.185026542342 -9.85399827895318 4441.97698482513
vertex 290.185026542342 42.6560017210435 4441.97698482513
vertex 285.185026542342 -19.2839982789588 4441.97698482514
endloop
endfacet
facet normal 0.0 1.11022302462516e-016 -1.0
outer loop
vertex 285.185026542342 -19.2839982789588 4441.97698482514
vertex 290.185026542342 42.6560017210435 4441.97698482513
vertex 285.185026542342 -21.2839982789533 4441.97698482513
endloop
endfacet
facet normal 0.0 1.11022302462516e-016 -1.0
outer loop
vertex 120.185026542342 -27.3439982789547 4441.97698482513
vertex 125.185026542342 -21.2839982789533 4441.97698482513
vertex 290.185026542342 -27.3439982789547 4441.97698482513
endloop
endfacet
facet normal 0.0 1.11022302462516e-016 -1.0
outer loop
vertex 125.185026542342 -21.2839982789533 4441.97698482513
vertex 120.185026542342 -27.3439982789547 4441.97698482513
vertex 125.185026542342 36.5960017210428 4441.97698482514
endloop
endfacet
facet normal 0.0 1.11022302462516e-016 -1.0
outer loop
vertex 125.185026542342 -21.2839982789533 4441.97698482513
vertex 125.185026542342 36.5960017210428 4441.97698482514
vertex 125.185026542342 34.5960017210439 4441.97698482513
endloop
endfacet
facet normal 0.0 1.11022302462516e-016 -1.0
outer loop
vertex 125.185026542342 -21.2839982789533 4441.97698482513
vertex 125.185026542342 34.5960017210439 4441.97698482513
vertex 125.185026542342 25.1660017210409 4441.97698482514
endloop
endfacet
facet normal 0.0 1.11022302462516e-016 -1.0
outer loop
vertex 125.185026542342 -21.2839982789533 4441.97698482513
vertex 125.185026542342 25.1660017210409 4441.97698482514
vertex 125.185026542342 23.1660017210446 4441.97698482514
endloop
endfacet
facet normal 0.0 1.11022302462516e-016 -1.0
outer loop
vertex 125.185026542342 -21.2839982789533 4441.97698482513
vertex 125.185026542342 23.1660017210446 4441.97698482514
vertex 125.185026542342 17.1660017210456 4441.97698482514
endloop
endfacet
facet normal 0.0 1.11022302462516e-016 -1.0
outer loop
vertex 125.185026542342 -21.2839982789533 4441.97698482513
vertex 125.185026542342 17.1660017210456 4441.97698482514
vertex 125.185026542342 -1.85399827895536 4441.97698482514
endloop
endfacet
facet normal 0.0 1.11022302462516e-016 -1.0
outer loop
vertex 125.185026542342 -21.2839982789533 4441.97698482513
vertex 125.185026542342 -1.85399827895536 4441.97698482514
vertex 125.185026542342 -7.85399827895147 4441.97698482513
endloop
endfacet
facet normal 0.0 1.11022302462516e-016 -1.0
outer loop
vertex 125.185026542342 -21.2839982789533 4441.97698482513
vertex 125.185026542342 -7.85399827895147 4441.97698482513
vertex 125.185026542342 -9.85399827895318 4441.97698482513
endloop
endfacet
facet normal 0.0 1.11022302462516e-016 -1.0
outer loop
vertex 125.185026542342 -21.2839982789533 4441.97698482513
vertex 125.185026542342 -9.85399827895318 4441.97698482513
vertex 125.185026542342 -19.2839982789588 4441.97698482514
endloop
endfacet
facet normal 0.0 1.11022302462516e-016 -1.0
outer loop
vertex 290.185026542342 -27.3439982789547 4441.97698482513
vertex 125.185026542342 -21.2839982789533 4441.97698482513
vertex 285.185026542342 -21.2839982789533 4441.97698482513
endloop
endfacet
facet normal 0.0 1.11022302462516e-016 -1.0
outer loop
vertex 290.185026542342 -27.3439982789547 4441.97698482513
vertex 285.185026542342 -21.2839982789533 4441.97698482513
vertex 290.185026542342 42.6560017210435 4441.97698482513
endloop
endfacet
facet normal 0.0 1.11022302462516e-016 -1.0
outer loop
vertex 285.185026542342 -9.85399827895318 4441.97698482513
vertex 125.185026542342 -19.2839982789588 4441.97698482514
vertex 125.185026542342 -9.85399827895318 4441.97698482513
endloop
endfacet
facet normal 0.0 1.11022302462516e-016 -1.0
outer loop
vertex 125.185026542342 -19.2839982789588 4441.97698482514
vertex 285.185026542342 -9.85399827895318 4441.97698482513
vertex 285.185026542342 -19.2839982789588 4441.97698482514
endloop
endfacet
facet normal 0.0 1.11022302462516e-016 -1.0
outer loop
vertex 285.185026542342 -1.85399827895536 4441.97698482514
vertex 125.185026542342 -7.85399827895147 4441.97698482513
vertex 125.185026542342 -1.85399827895536 4441.97698482514
endloop
endfacet
facet normal 0.0 1.11022302462516e-016 -1.0
outer loop
vertex 125.185026542342 -7.85399827895147 4441.97698482513
vertex 285.185026542342 -1.85399827895536 4441.97698482514
vertex 285.185026542342 -7.85399827895147 4441.97698482513
endloop
endfacet
facet normal 0.0 1.11022302462516e-016 -1.0
outer loop
vertex 285.185026542342 23.1660017210446 4441.97698482514
vertex 125.185026542342 17.1660017210456 4441.97698482514
vertex 125.185026542342 23.1660017210446 4441.97698482514
endloop
endfacet
facet normal 0.0 1.11022302462516e-016 -1.0
outer loop
vertex 125.185026542342 17.1660017210456 4441.97698482514
vertex 285.185026542342 23.1660017210446 4441.97698482514
vertex 285.185026542342 17.1660017210456 4441.97698482514
endloop
endfacet
facet normal 0.0 1.11022302462516e-016 -1.0
outer loop
vertex 285.185026542342 34.5960017210439 4441.97698482513
vertex 125.185026542342 25.1660017210409 4441.97698482514
vertex 125.185026542342 34.5960017210439 4441.97698482513
endloop
endfacet
facet normal 0.0 1.11022302462516e-016 -1.0
outer loop
vertex 125.185026542342 25.1660017210409 4441.97698482514
vertex 285.185026542342 34.5960017210439 4441.97698482513
vertex 285.185026542342 25.1660017210409 4441.97698482514
endloop
endfacet
facet normal 0.0 1.0 1.11022302462516e-016
outer loop
vertex 120.185026542342 42.6560017210471 4444.97698482513
vertex 290.185026542342 42.6560017210435 4441.97698482513
vertex 120.185026542342 42.6560017210435 4441.97698482513
endloop
endfacet
facet normal 0.0 1.0 1.11022302462516e-016
outer loop
vertex 290.185026542342 42.6560017210435 4441.97698482513
vertex 120.185026542342 42.6560017210471 4444.97698482513
vertex 290.185026542342 42.6560017210471 4444.97698482513
endloop
endfacet
facet normal -1.0 0.0 0.0
outer loop
vertex 120.185026542342 17.1660017210452 4454.97698482513
vertex 120.185026542342 -1.85399827895572 4444.97698482514
vertex 120.185026542342 -1.85399827895789 4454.97698482514
endloop
endfacet
facet normal -1.0 0.0 0.0
outer loop
vertex 120.185026542342 -1.85399827895572 4444.97698482514
vertex 120.185026542342 17.1660017210452 4454.97698482513
vertex 120.185026542342 17.1660017210398 4444.97698482514
endloop
endfacet
facet normal -1.0 0.0 0.0
outer loop
vertex 120.185026542342 -27.34399827895 4444.97698482513
vertex 120.185026542342 42.6560017210435 4441.97698482513
vertex 120.185026542342 -27.3439982789547 4441.97698482513
endloop
endfacet
facet normal -1.0 0.0 0.0
outer loop
vertex 120.185026542342 42.6560017210435 4441.97698482513
vertex 120.185026542342 -27.34399827895 4444.97698482513
vertex 120.185026542342 -1.85399827895572 4444.97698482514
endloop
endfacet
facet normal -1.0 0.0 0.0
outer loop
vertex 120.185026542342 42.6560017210435 4441.97698482513
vertex 120.185026542342 -1.85399827895572 4444.97698482514
vertex 120.185026542342 17.1660017210398 4444.97698482514
endloop
endfacet
facet normal -1.0 0.0 0.0
outer loop
vertex 120.185026542342 42.6560017210435 4441.97698482513
vertex 120.185026542342 17.1660017210398 4444.97698482514
vertex 120.185026542342 42.6560017210471 4444.97698482513
endloop
endfacet
facet normal 0.0 -1.0 -1.11022302462516e-016
outer loop
vertex 290.185026542342 -27.34399827895 4444.97698482513
vertex 120.185026542342 -27.3439982789547 4441.97698482513
vertex 290.185026542342 -27.3439982789547 4441.97698482513
endloop
endfacet
facet normal 0.0 -1.0 -1.11022302462516e-016
outer loop
vertex 120.185026542342 -27.3439982789547 4441.97698482513
vertex 290.185026542342 -27.34399827895 4444.97698482513
vertex 120.185026542342 -27.34399827895 4444.97698482513
endloop
endfacet
facet normal 1.0 0.0 0.0
outer loop
vertex 290.185026542342 42.6560017210435 4441.97698482513
vertex 290.185026542342 -27.34399827895 4444.97698482513
vertex 290.185026542342 -27.3439982789547 4441.97698482513
endloop
endfacet
facet normal 1.0 0.0 0.0
outer loop
vertex 290.185026542342 -27.34399827895 4444.97698482513
vertex 290.185026542342 42.6560017210435 4441.97698482513
vertex 290.185026542342 -1.85399827895572 4444.97698482514
endloop
endfacet
facet normal 1.0 0.0 0.0
outer loop
vertex 290.185026542342 -1.85399827895572 4444.97698482514
vertex 290.185026542342 42.6560017210435 4441.97698482513
vertex 290.185026542342 17.1660017210398 4444.97698482514
endloop
endfacet
facet normal 1.0 0.0 0.0
outer loop
vertex 290.185026542342 17.1660017210398 4444.97698482514
vertex 290.185026542342 42.6560017210435 4441.97698482513
vertex 290.185026542342 42.6560017210471 4444.97698482513
endloop
endfacet
facet normal 1.0 0.0 0.0
outer loop
vertex 290.185026542342 -1.85399827895572 4444.97698482514
vertex 290.185026542342 17.1660017210452 4454.97698482513
vertex 290.185026542342 -1.85399827895789 4454.97698482514
endloop
endfacet
facet normal 1.0 0.0 0.0
outer loop
vertex 290.185026542342 17.1660017210452 4454.97698482513
vertex 290.185026542342 -1.85399827895572 4444.97698482514
vertex 290.185026542342 17.1660017210398 4444.97698482514
endloop
endfacet
facet normal -1.0 0.0 0.0
outer loop
vertex 285.185026542342 23.1660017210449 4444.97698482513
vertex 285.185026542342 25.1660017210409 4441.97698482514
vertex 285.185026542342 23.1660017210446 4441.97698482514
endloop
endfacet
facet normal -1.0 0.0 0.0
outer loop
vertex 285.185026542342 25.1660017210409 4441.97698482514
vertex 285.185026542342 23.1660017210449 4444.97698482513
vertex 285.185026542342 25.1660017210441 4444.97698482514
endloop
endfacet
facet normal 0.0 1.0 1.11022302462516e-016
outer loop
vertex 125.185026542342 23.1660017210449 4444.97698482513
vertex 285.185026542342 23.1660017210446 4441.97698482514
vertex 125.185026542342 23.1660017210446 4441.97698482514
endloop
endfacet
facet normal 0.0 1.0 1.11022302462516e-016
outer loop
vertex 285.185026542342 23.1660017210446 4441.97698482514
vertex 125.185026542342 23.1660017210449 4444.97698482513
vertex 285.185026542342 23.1660017210449 4444.97698482513
endloop
endfacet
facet normal 1.0 0.0 0.0
outer loop
vertex 125.185026542342 25.1660017210409 4441.97698482514
vertex 125.185026542342 23.1660017210449 4444.97698482513
vertex 125.185026542342 23.1660017210446 4441.97698482514
endloop
endfacet
facet normal 1.0 0.0 0.0
outer loop
vertex 125.185026542342 23.1660017210449 4444.97698482513
vertex 125.185026542342 25.1660017210409 4441.97698482514
vertex 125.185026542342 25.1660017210441 4444.97698482514
endloop
endfacet
facet normal 0.0 -1.0 -1.11022302462516e-016
outer loop
vertex 285.185026542342 25.1660017210441 4444.97698482514
vertex 125.185026542342 25.1660017210409 4441.97698482514
vertex 285.185026542342 25.1660017210409 4441.97698482514
endloop
endfacet
facet normal 0.0 -1.0 -1.11022302462516e-016
outer loop
vertex 125.185026542342 25.1660017210409 4441.97698482514
vertex 285.185026542342 25.1660017210441 4444.97698482514
vertex 125.185026542342 25.1660017210441 4444.97698482514
endloop
endfacet
facet normal 0.0 -1.0 -1.11022302462516e-016
outer loop
vertex 285.185026542342 36.5960017210449 4444.97698482514
vertex 125.185026542342 36.5960017210428 4441.97698482514
vertex 285.185026542342 36.5960017210428 4441.97698482514
endloop
endfacet
facet normal 0.0 -1.0 -1.11022302462516e-016
outer loop
vertex 125.185026542342 36.5960017210428 4441.97698482514
vertex 285.185026542342 36.5960017210449 4444.97698482514
vertex 125.185026542342 36.5960017210449 4444.97698482514
endloop
endfacet
facet normal -1.0 0.0 0.0
outer loop
vertex 285.185026542342 34.5960017210447 4444.97698482514
vertex 285.185026542342 36.5960017210428 4441.97698482514
vertex 285.185026542342 34.5960017210439 4441.97698482513
endloop
endfacet
facet normal -1.0 0.0 0.0
outer loop
vertex 285.185026542342 36.5960017210428 4441.97698482514
vertex 285.185026542342 34.5960017210447 4444.97698482514
vertex 285.185026542342 36.5960017210449 4444.97698482514
endloop
endfacet
facet normal 0.0 1.0 1.11022302462516e-016
outer loop
vertex 125.185026542342 34.5960017210447 4444.97698482514
vertex 285.185026542342 34.5960017210439 4441.97698482513
vertex 125.185026542342 34.5960017210439 4441.97698482513
endloop
endfacet
facet normal 0.0 1.0 1.11022302462516e-016
outer loop
vertex 285.185026542342 34.5960017210439 4441.97698482513
vertex 125.185026542342 34.5960017210447 4444.97698482514
vertex 285.185026542342 34.5960017210447 4444.97698482514
endloop
endfacet
facet normal 1.0 0.0 0.0
outer loop
vertex 125.185026542342 36.5960017210428 4441.97698482514
vertex 125.185026542342 34.5960017210447 4444.97698482514
vertex 125.185026542342 34.5960017210439 4441.97698482513
endloop
endfacet
facet normal 1.0 0.0 0.0
outer loop
vertex 125.185026542342 34.5960017210447 4444.97698482514
vertex 125.185026542342 36.5960017210428 4441.97698482514
vertex 125.185026542342 36.5960017210449 4444.97698482514
endloop
endfacet
facet normal 0.0 -1.0 -1.11022302462516e-016
outer loop
vertex 285.185026542342 -7.85399827895255 4444.97698482513
vertex 125.185026542342 -7.85399827895147 4441.97698482513
vertex 285.185026542342 -7.85399827895147 4441.97698482513
endloop
endfacet
facet normal 0.0 -1.0 -1.11022302462516e-016
outer loop
vertex 125.185026542342 -7.85399827895147 4441.97698482513
vertex 285.185026542342 -7.85399827895255 4444.97698482513
vertex 125.185026542342 -7.85399827895255 4444.97698482513
endloop
endfacet
facet normal -1.0 0.0 0.0
outer loop
vertex 285.185026542342 -7.85399827895255 4444.97698482513
vertex 285.185026542342 -9.85399827895318 4441.97698482513
vertex 285.185026542342 -9.85399827895426 4444.97698482514
endloop
endfacet
facet normal -1.0 0.0 0.0
outer loop
vertex 285.185026542342 -9.85399827895318 4441.97698482513
vertex 285.185026542342 -7.85399827895255 4444.97698482513
vertex 285.185026542342 -7.85399827895147 4441.97698482513
endloop
endfacet
facet normal 0.0 1.0 1.11022302462516e-016
outer loop
vertex 125.185026542342 -9.85399827895426 4444.97698482514
vertex 285.185026542342 -9.85399827895318 4441.97698482513
vertex 125.185026542342 -9.85399827895318 4441.97698482513
endloop
endfacet
facet normal 0.0 1.0 1.11022302462516e-016
outer loop
vertex 285.185026542342 -9.85399827895318 4441.97698482513
vertex 125.185026542342 -9.85399827895426 4444.97698482514
vertex 285.185026542342 -9.85399827895426 4444.97698482514
endloop
endfacet
facet normal 1.0 0.0 0.0
outer loop
vertex 125.185026542342 -9.85399827895318 4441.97698482513
vertex 125.185026542342 -7.85399827895255 4444.97698482513
vertex 125.185026542342 -9.85399827895426 4444.97698482514
endloop
endfacet
facet normal 1.0 0.0 0.0
outer loop
vertex 125.185026542342 -7.85399827895255 4444.97698482513
vertex 125.185026542342 -9.85399827895318 4441.97698482513
vertex 125.185026542342 -7.85399827895147 4441.97698482513
endloop
endfacet
facet normal 0.0 -1.0 -1.11022302462516e-016
outer loop
vertex 285.185026542342 -19.2839982789526 4444.97698482514
vertex 125.185026542342 -19.2839982789588 4441.97698482514
vertex 285.185026542342 -19.2839982789588 4441.97698482514
endloop
endfacet
facet normal 0.0 -1.0 -1.11022302462516e-016
outer loop
vertex 125.185026542342 -19.2839982789588 4441.97698482514
vertex 285.185026542342 -19.2839982789526 4444.97698482514
vertex 125.185026542342 -19.2839982789526 4444.97698482514
endloop
endfacet
facet normal -1.0 0.0 0.0
outer loop
vertex 285.185026542342 -19.2839982789526 4444.97698482514
vertex 285.185026542342 -21.2839982789533 4441.97698482513
vertex 285.185026542342 -21.2839982789598 4444.97698482514
endloop
endfacet
facet normal -1.0 0.0 0.0
outer loop
vertex 285.185026542342 -21.2839982789533 4441.97698482513
vertex 285.185026542342 -19.2839982789526 4444.97698482514
vertex 285.185026542342 -19.2839982789588 4441.97698482514
endloop
endfacet
facet normal 0.0 1.0 1.11022302462516e-016
outer loop
vertex 125.185026542342 -21.2839982789598 4444.97698482514
vertex 285.185026542342 -21.2839982789533 4441.97698482513
vertex 125.185026542342 -21.2839982789533 4441.97698482513
endloop
endfacet
facet normal 0.0 1.0 1.11022302462516e-016
outer loop
vertex 285.185026542342 -21.2839982789533 4441.97698482513
vertex 125.185026542342 -21.2839982789598 4444.97698482514
vertex 285.185026542342 -21.2839982789598 4444.97698482514
endloop
endfacet
facet normal 1.0 0.0 0.0
outer loop
vertex 125.185026542342 -21.2839982789533 4441.97698482513
vertex 125.185026542342 -19.2839982789526 4444.97698482514
vertex 125.185026542342 -21.2839982789598 4444.97698482514
endloop
endfacet
facet normal 1.0 0.0 0.0
outer loop
vertex 125.185026542342 -19.2839982789526 4444.97698482514
vertex 125.185026542342 -21.2839982789533 4441.97698482513
vertex 125.185026542342 -19.2839982789588 4441.97698482514
endloop
endfacet
facet normal -1.0 0.0 0.0
outer loop
vertex 285.185026542342 17.1660017210452 4454.97698482513
vertex 285.185026542342 -1.85399827895572 4444.97698482514
vertex 285.185026542342 -1.85399827895789 4454.97698482514
endloop
endfacet
facet normal -1.0 0.0 0.0
outer loop
vertex 285.185026542342 -1.85399827895572 4444.97698482514
vertex 285.185026542342 17.1660017210452 4454.97698482513
vertex 285.185026542342 -1.85399827895536 4441.97698482514
endloop
endfacet
facet normal -1.0 0.0 0.0
outer loop
vertex 285.185026542342 -1.85399827895536 4441.97698482514
vertex 285.185026542342 17.1660017210452 4454.97698482513
vertex 285.185026542342 17.1660017210398 4444.97698482514
endloop
endfacet
facet normal -1.0 0.0 0.0
outer loop
vertex 285.185026542342 17.1660017210456 4441.97698482514
vertex 285.185026542342 -1.85399827895536 4441.97698482514
vertex 285.185026542342 17.1660017210398 4444.97698482514
endloop
endfacet
facet normal 0.0 1.0 1.11022302462516e-016
outer loop
vertex 125.185026542342 -1.85399827895572 4444.97698482514
vertex 285.185026542342 -1.85399827895536 4441.97698482514
vertex 125.185026542342 -1.85399827895536 4441.97698482514
endloop
endfacet
facet normal 0.0 1.0 1.11022302462516e-016
outer loop
vertex 285.185026542342 -1.85399827895536 4441.97698482514
vertex 125.185026542342 -1.85399827895572 4444.97698482514
vertex 285.185026542342 -1.85399827895572 4444.97698482514
endloop
endfacet
facet normal 1.0 0.0 0.0
outer loop
vertex 125.185026542342 17.1660017210456 4441.97698482514
vertex 125.185026542342 17.1660017210398 4444.97698482514
vertex 125.185026542342 -1.85399827895536 4441.97698482514
endloop
endfacet
facet normal 1.0 0.0 0.0
outer loop
vertex 125.185026542342 -1.85399827895572 4444.97698482514
vertex 125.185026542342 17.1660017210452 4454.97698482513
vertex 125.185026542342 -1.85399827895789 4454.97698482514
endloop
endfacet
facet normal 1.0 0.0 0.0
outer loop
vertex 125.185026542342 17.1660017210452 4454.97698482513
vertex 125.185026542342 -1.85399827895572 4444.97698482514
vertex 125.185026542342 -1.85399827895536 4441.97698482514
endloop
endfacet
facet normal 1.0 0.0 0.0
outer loop
vertex 125.185026542342 17.1660017210452 4454.97698482513
vertex 125.185026542342 -1.85399827895536 4441.97698482514
vertex 125.185026542342 17.1660017210398 4444.97698482514
endloop
endfacet
facet normal 0.0 -1.0 -1.11022302462516e-016
outer loop
vertex 285.185026542342 17.1660017210398 4444.97698482514
vertex 125.185026542342 17.1660017210456 4441.97698482514
vertex 285.185026542342 17.1660017210456 4441.97698482514
endloop
endfacet
facet normal 0.0 -1.0 -1.11022302462516e-016
outer loop
vertex 125.185026542342 17.1660017210456 4441.97698482514
vertex 285.185026542342 17.1660017210398 4444.97698482514
vertex 125.185026542342 17.1660017210398 4444.97698482514
endloop
endfacet
facet normal 0.0 -1.11022302462516e-016 1.0
outer loop
vertex 120.185026542342 -27.34399827895 4444.97698482513
vertex 125.185026542342 -21.2839982789598 4444.97698482514
vertex 120.185026542342 -1.85399827895572 4444.97698482514
endloop
endfacet
facet normal 0.0 -1.11022302462516e-016 1.0
outer loop
vertex 125.185026542342 -21.2839982789598 4444.97698482514
vertex 120.185026542342 -27.34399827895 4444.97698482513
vertex 290.185026542342 -27.34399827895 4444.97698482513
endloop
endfacet
facet normal 0.0 -1.11022302462516e-016 1.0
outer loop
vertex 125.185026542342 -21.2839982789598 4444.97698482514
vertex 290.185026542342 -27.34399827895 4444.97698482513
vertex 285.185026542342 -21.2839982789598 4444.97698482514
endloop
endfacet
facet normal 0.0 -1.11022302462516e-016 1.0
outer loop
vertex 285.185026542342 -21.2839982789598 4444.97698482514
vertex 290.185026542342 -27.34399827895 4444.97698482513
vertex 285.185026542342 -19.2839982789526 4444.97698482514
endloop
endfacet
facet normal 0.0 -1.11022302462516e-016 1.0
outer loop
vertex 285.185026542342 -19.2839982789526 4444.97698482514
vertex 290.185026542342 -27.34399827895 4444.97698482513
vertex 285.185026542342 -9.85399827895426 4444.97698482514
endloop
endfacet
facet normal 0.0 -1.11022302462516e-016 1.0
outer loop
vertex 285.185026542342 -9.85399827895426 4444.97698482514
vertex 290.185026542342 -27.34399827895 4444.97698482513
vertex 285.185026542342 -7.85399827895255 4444.97698482513
endloop
endfacet
facet normal 0.0 -1.11022302462516e-016 1.0
outer loop
vertex 285.185026542342 -7.85399827895255 4444.97698482513
vertex 290.185026542342 -27.34399827895 4444.97698482513
vertex 285.185026542342 -1.85399827895572 4444.97698482514
endloop
endfacet
facet normal 0.0 -1.11022302462516e-016 1.0
outer loop
vertex 285.185026542342 -1.85399827895572 4444.97698482514
vertex 290.185026542342 -27.34399827895 4444.97698482513
vertex 290.185026542342 -1.85399827895572 4444.97698482514
endloop
endfacet
facet normal 0.0 -1.11022302462516e-016 1.0
outer loop
vertex 125.185026542342 -21.2839982789598 4444.97698482514
vertex 125.185026542342 -1.85399827895572 4444.97698482514
vertex 120.185026542342 -1.85399827895572 4444.97698482514
endloop
endfacet
facet normal 0.0 -1.11022302462516e-016 1.0
outer loop
vertex 125.185026542342 -1.85399827895572 4444.97698482514
vertex 125.185026542342 -21.2839982789598 4444.97698482514
vertex 125.185026542342 -19.2839982789526 4444.97698482514
endloop
endfacet
facet normal 0.0 -1.11022302462516e-016 1.0
outer loop
vertex 125.185026542342 -1.85399827895572 4444.97698482514
vertex 125.185026542342 -19.2839982789526 4444.97698482514
vertex 125.185026542342 -9.85399827895426 4444.97698482514
endloop
endfacet
facet normal 0.0 -1.11022302462516e-016 1.0
outer loop
vertex 125.185026542342 -1.85399827895572 4444.97698482514
vertex 125.185026542342 -9.85399827895426 4444.97698482514
vertex 125.185026542342 -7.85399827895255 4444.97698482513
endloop
endfacet
facet normal 0.0 -1.11022302462516e-016 1.0
outer loop
vertex 125.185026542342 -1.85399827895572 4444.97698482514
vertex 125.185026542342 -7.85399827895255 4444.97698482513
vertex 285.185026542342 -7.85399827895255 4444.97698482513
endloop
endfacet
facet normal 0.0 -1.11022302462516e-016 1.0
outer loop
vertex 125.185026542342 -1.85399827895572 4444.97698482514
vertex 285.185026542342 -7.85399827895255 4444.97698482513
vertex 285.185026542342 -1.85399827895572 4444.97698482514
endloop
endfacet
facet normal 0.0 -1.11022302462516e-016 1.0
outer loop
vertex 285.185026542342 -19.2839982789526 4444.97698482514
vertex 125.185026542342 -9.85399827895426 4444.97698482514
vertex 125.185026542342 -19.2839982789526 4444.97698482514
endloop
endfacet
facet normal 0.0 -1.11022302462516e-016 1.0
outer loop
vertex 125.185026542342 -9.85399827895426 4444.97698482514
vertex 285.185026542342 -19.2839982789526 4444.97698482514
vertex 285.185026542342 -9.85399827895426 4444.97698482514
endloop
endfacet
facet normal 0.0 -1.11022302462516e-016 1.0
outer loop
vertex 285.185026542342 17.1660017210398 4444.97698482514
vertex 125.185026542342 23.1660017210449 4444.97698482513
vertex 125.185026542342 17.1660017210398 4444.97698482514
endloop
endfacet
facet normal 0.0 -1.11022302462516e-016 1.0
outer loop
vertex 125.185026542342 23.1660017210449 4444.97698482513
vertex 285.185026542342 17.1660017210398 4444.97698482514
vertex 285.185026542342 23.1660017210449 4444.97698482513
endloop
endfacet
facet normal 0.0 -1.11022302462516e-016 1.0
outer loop
vertex 285.185026542342 23.1660017210449 4444.97698482513
vertex 285.185026542342 17.1660017210398 4444.97698482514
vertex 290.185026542342 17.1660017210398 4444.97698482514
endloop
endfacet
facet normal 0.0 -1.11022302462516e-016 1.0
outer loop
vertex 285.185026542342 23.1660017210449 4444.97698482513
vertex 290.185026542342 17.1660017210398 4444.97698482514
vertex 285.185026542342 25.1660017210441 4444.97698482514
endloop
endfacet
facet normal 0.0 -1.11022302462516e-016 1.0
outer loop
vertex 285.185026542342 25.1660017210441 4444.97698482514
vertex 290.185026542342 17.1660017210398 4444.97698482514
vertex 285.185026542342 34.5960017210447 4444.97698482514
endloop
endfacet
facet normal 0.0 -1.11022302462516e-016 1.0
outer loop
vertex 285.185026542342 34.5960017210447 4444.97698482514
vertex 290.185026542342 17.1660017210398 4444.97698482514
vertex 285.185026542342 36.5960017210449 4444.97698482514
endloop
endfacet
facet normal 0.0 -1.11022302462516e-016 1.0
outer loop
vertex 125.185026542342 17.1660017210398 4444.97698482514
vertex 120.185026542342 42.6560017210471 4444.97698482513
vertex 120.185026542342 17.1660017210398 4444.97698482514
endloop
endfacet
facet normal 0.0 -1.11022302462516e-016 1.0
outer loop
vertex 120.185026542342 42.6560017210471 4444.97698482513
vertex 125.185026542342 17.1660017210398 4444.97698482514
vertex 125.185026542342 36.5960017210449 4444.97698482514
endloop
endfacet
facet normal 0.0 -1.11022302462516e-016 1.0
outer loop
vertex 120.185026542342 42.6560017210471 4444.97698482513
vertex 125.185026542342 36.5960017210449 4444.97698482514
vertex 290.185026542342 42.6560017210471 4444.97698482513
endloop
endfacet
facet normal 0.0 -1.11022302462516e-016 1.0
outer loop
vertex 125.185026542342 36.5960017210449 4444.97698482514
vertex 125.185026542342 17.1660017210398 4444.97698482514
vertex 125.185026542342 23.1660017210449 4444.97698482513
endloop
endfacet
facet normal 0.0 -1.11022302462516e-016 1.0
outer loop
vertex 125.185026542342 36.5960017210449 4444.97698482514
vertex 125.185026542342 23.1660017210449 4444.97698482513
vertex 125.185026542342 25.1660017210441 4444.97698482514
endloop
endfacet
facet normal 0.0 -1.11022302462516e-016 1.0
outer loop
vertex 125.185026542342 36.5960017210449 4444.97698482514
vertex 125.185026542342 25.1660017210441 4444.97698482514
vertex 125.185026542342 34.5960017210447 4444.97698482514
endloop
endfacet
facet normal 0.0 -1.11022302462516e-016 1.0
outer loop
vertex 290.185026542342 42.6560017210471 4444.97698482513
vertex 125.185026542342 36.5960017210449 4444.97698482514
vertex 285.185026542342 36.5960017210449 4444.97698482514
endloop
endfacet
facet normal 0.0 -1.11022302462516e-016 1.0
outer loop
vertex 290.185026542342 42.6560017210471 4444.97698482513
vertex 285.185026542342 36.5960017210449 4444.97698482514
vertex 290.185026542342 17.1660017210398 4444.97698482514
endloop
endfacet
facet normal 0.0 -1.11022302462516e-016 1.0
outer loop
vertex 285.185026542342 25.1660017210441 4444.97698482514
vertex 125.185026542342 34.5960017210447 4444.97698482514
vertex 125.185026542342 25.1660017210441 4444.97698482514
endloop
endfacet
facet normal 0.0 -1.11022302462516e-016 1.0
outer loop
vertex 125.185026542342 34.5960017210447 4444.97698482514
vertex 285.185026542342 25.1660017210441 4444.97698482514
vertex 285.185026542342 34.5960017210447 4444.97698482514
endloop
endfacet
facet normal 0.0 -1.11022302462516e-016 1.0
outer loop
vertex 290.185026542342 -1.85399827895789 4454.97698482514
vertex 285.185026542342 17.1660017210452 4454.97698482513
vertex 285.185026542342 -1.85399827895789 4454.97698482514
endloop
endfacet
facet normal 0.0 -1.11022302462516e-016 1.0
outer loop
vertex 285.185026542342 17.1660017210452 4454.97698482513
vertex 290.185026542342 -1.85399827895789 4454.97698482514
vertex 290.185026542342 17.1660017210452 4454.97698482513
endloop
endfacet
facet normal 0.0 1.0 1.11022302462516e-016
outer loop
vertex 285.185026542342 17.1660017210452 4454.97698482513
vertex 290.185026542342 17.1660017210398 4444.97698482514
vertex 285.185026542342 17.1660017210398 4444.97698482514
endloop
endfacet
facet normal 0.0 1.0 1.11022302462516e-016
outer loop
vertex 290.185026542342 17.1660017210398 4444.97698482514
vertex 285.185026542342 17.1660017210452 4454.97698482513
vertex 290.185026542342 17.1660017210452 4454.97698482513
endloop
endfacet
facet normal 0.0 -1.0 -1.11022302462516e-016
outer loop
vertex 290.185026542342 -1.85399827895789 4454.97698482514
vertex 285.185026542342 -1.85399827895572 4444.97698482514
vertex 290.185026542342 -1.85399827895572 4444.97698482514
endloop
endfacet
facet normal 0.0 -1.0 -1.11022302462516e-016
outer loop
vertex 285.185026542342 -1.85399827895572 4444.97698482514
vertex 290.185026542342 -1.85399827895789 4454.97698482514
vertex 285.185026542342 -1.85399827895789 4454.97698482514
endloop
endfacet
facet normal 0.0 -1.11022302462516e-016 1.0
outer loop
vertex 125.185026542342 -1.85399827895789 4454.97698482514
vertex 120.185026542342 17.1660017210452 4454.97698482513
vertex 120.185026542342 -1.85399827895789 4454.97698482514
endloop
endfacet
facet normal 0.0 -1.11022302462516e-016 1.0
outer loop
vertex 120.185026542342 17.1660017210452 4454.97698482513
vertex 125.185026542342 -1.85399827895789 4454.97698482514
vertex 125.185026542342 17.1660017210452 4454.97698482513
endloop
endfacet
facet normal 0.0 1.0 1.11022302462516e-016
outer loop
vertex 120.185026542342 17.1660017210452 4454.97698482513
vertex 125.185026542342 17.1660017210398 4444.97698482514
vertex 120.185026542342 17.1660017210398 4444.97698482514
endloop
endfacet
facet normal 0.0 1.0 1.11022302462516e-016
outer loop
vertex 125.185026542342 17.1660017210398 4444.97698482514
vertex 120.185026542342 17.1660017210452 4454.97698482513
vertex 125.185026542342 17.1660017210452 4454.97698482513
endloop
endfacet
facet normal 0.0 -1.0 -1.11022302462516e-016
outer loop
vertex 125.185026542342 -1.85399827895789 4454.97698482514
vertex 120.185026542342 -1.85399827895572 4444.97698482514
vertex 125.185026542342 -1.85399827895572 4444.97698482514
endloop
endfacet
facet normal 0.0 -1.0 -1.11022302462516e-016
outer loop
vertex 120.185026542342 -1.85399827895572 4444.97698482514
vertex 125.185026542342 -1.85399827895789 4454.97698482514
vertex 120.185026542342 -1.85399827895789 4454.97698482514
endloop
endfacet
endsolid StereoPSEyeCameraPlate
