solid individual
facet normal 1.5098511017735e-008 -0.999999999959651 -8.98315888839982e-006
outer loop
vertex -40.5699951715632 -63.5001443808475 -2.99972651296551
vertex -65.0 -63.5004005432129 16.0004005432129
vertex -65.0000148887567 -63.5001454849636 -3.0000092213739
endloop
endfacet
facet normal 1.5098511017735e-008 -0.999999999959651 -8.98315888839982e-006
outer loop
vertex -65.0 -63.5004005432129 16.0004005432129
vertex -40.5699951715632 -63.5001443808475 -2.99972651296551
vertex -40.57 -63.5004005432129 16.0004005432129
endloop
endfacet
facet normal 0.0 -0.90259559046352 0.430489488926048
outer loop
vertex -40.57 -62.3884010314941 18.3318996429443
vertex -65.0 -63.5004005432129 16.0004005432129
vertex -40.57 -63.5004005432129 16.0004005432129
endloop
endfacet
facet normal 0.0 -0.90259559046352 0.430489488926048
outer loop
vertex -65.0 -63.5004005432129 16.0004005432129
vertex -40.57 -62.3884010314941 18.3318996429443
vertex -65.0 -62.3884010314941 18.3318996429443
endloop
endfacet
facet normal 6.23441815465851e-018 -0.629278848804148 0.777179599865904
outer loop
vertex -40.57 -62.3884010314941 18.3318996429443
vertex -65.0 -56.1710014343262 23.3661003112793
vertex -65.0 -62.3884010314941 18.3318996429443
endloop
endfacet
facet normal 6.23441815465851e-018 -0.629278848804148 0.777179599865904
outer loop
vertex -65.0 -56.1710014343262 23.3661003112793
vertex -40.57 -62.3884010314941 18.3318996429443
vertex -40.57 -56.1710014343262 23.3661003112793
endloop
endfacet
facet normal -2.77188401774107e-018 0.777052380819565 0.629435935947929
outer loop
vertex -65.0 -56.1710014343262 23.3661003112793
vertex -40.57 -54.282901763916 21.0352001190186
vertex -65.0 -54.282901763916 21.0352001190186
endloop
endfacet
facet normal -2.77188401774107e-018 0.777052380819565 0.629435935947929
outer loop
vertex -40.57 -54.282901763916 21.0352001190186
vertex -65.0 -56.1710014343262 23.3661003112793
vertex -40.57 -56.1710014343262 23.3661003112793
endloop
endfacet
facet normal 8.74875717834428e-018 -0.798609846147793 -0.601849078786201
outer loop
vertex -40.5700000011519 53.2779006958008 25.5839996337891
vertex -65.0 60.500301361084 16.0004005432129
vertex -40.5700000011519 60.500301361084 16.0004005432129
endloop
endfacet
facet normal 8.74875717834428e-018 -0.798609846147793 -0.601849078786201
outer loop
vertex -65.0 60.500301361084 16.0004005432129
vertex -40.5700000011519 53.2779006958008 25.5839996337891
vertex -65.0 53.2779006958008 25.5839996337891
endloop
endfacet
facet normal -1.01254919569651e-030 -0.601832730796303 0.798622166072458
outer loop
vertex -40.5700000011519 53.2779006958008 25.5839996337891
vertex -65.0 55.6743011474609 27.3899002075195
vertex -65.0 53.2779006958008 25.5839996337891
endloop
endfacet
facet normal -1.01254919569651e-030 -0.601832730796303 0.798622166072458
outer loop
vertex -65.0 55.6743011474609 27.3899002075195
vertex -40.5700000011519 53.2779006958008 25.5839996337891
vertex -40.5700000011519 55.6743011474609 27.3899002075195
endloop
endfacet
facet normal 8.62844324145353e-018 0.798634044257473 0.601816968315909
outer loop
vertex -65.0 55.6743011474609 27.3899002075195
vertex -40.5700000011519 62.8960990905762 17.8062992095947
vertex -65.0 62.8960990905762 17.8062992095947
endloop
endfacet
facet normal 8.62844324145353e-018 0.798634044257473 0.601816968315909
outer loop
vertex -40.5700000011519 62.8960990905762 17.8062992095947
vertex -65.0 55.6743011474609 27.3899002075195
vertex -40.5700000011519 55.6743011474609 27.3899002075195
endloop
endfacet
facet normal -0.0 0.948314772720709 0.317331202121176
outer loop
vertex -65.0 62.8960990905762 17.8062992095947
vertex -40.5700000011519 63.5004005432129 16.0004005432129
vertex -65.0 63.5004005432129 16.0004005432129
endloop
endfacet
facet normal -0.0 0.948314772720709 0.317331202121176
outer loop
vertex -40.5700000011519 63.5004005432129 16.0004005432129
vertex -65.0 62.8960990905762 17.8062992095947
vertex -40.5700000011519 62.8960990905762 17.8062992095947
endloop
endfacet
facet normal -2.63035727355299e-010 1.0 8.42085426701692e-009
outer loop
vertex -65.0 -36.5001506803425 3.00007367655451
vertex -40.57 -36.5001506803425 7.93399403218192e-005
vertex -65.0000471364887 -36.5001506803425 3.96699701609096e-005
endloop
endfacet
facet normal -2.63035727355299e-010 1.0 8.42085426701692e-009
outer loop
vertex -40.57 -36.5001506803425 7.93399403218192e-005
vertex -65.0 -36.5001506803425 3.00007367655451
vertex -40.5700000001142 -36.5001506803425 3.00004745572437
endloop
endfacet
facet normal 7.50609412916827e-006 0.999999999661981 -2.48937018410355e-005
outer loop
vertex -65.0 63.5004005432129 16.0004005432129
vertex -40.5699961249553 63.4998556188526 -2.99950185167771
vertex -65.0000159403386 63.4998545147034 -2.99974314123981
endloop
endfacet
facet normal 7.50609412916827e-006 0.999999999661981 -2.48937018410355e-005
outer loop
vertex -40.5699961249553 63.4998556188526 -2.99950185167771
vertex -65.0 63.5004005432129 16.0004005432129
vertex -40.5700000011519 63.5004005432129 16.0004005432129
endloop
endfacet
facet normal 0.0 0.629295393987983 -0.777166203012913
outer loop
vertex -40.57 -54.282901763916 21.0352001190186
vertex -65.0 -60.5004005432129 16.0006999969482
vertex -65.0 -54.282901763916 21.0352001190186
endloop
endfacet
facet normal 0.0 0.629295393987983 -0.777166203012913
outer loop
vertex -65.0 -60.5004005432129 16.0006999969482
vertex -40.57 -54.282901763916 21.0352001190186
vertex -40.57 -60.5004005432129 16.0006999969482
endloop
endfacet
facet normal -0.0 1.0 -0.0
outer loop
vertex -65.0 -60.5004005432129 3.00009989738464
vertex -40.57 -60.5004005432129 16.0006999969482
vertex -40.57 -60.5004005432129 3.0
endloop
endfacet
facet normal -0.0 1.0 -0.0
outer loop
vertex -40.57 -60.5004005432129 16.0006999969482
vertex -65.0 -60.5004005432129 3.00009989738464
vertex -65.0 -60.5004005432129 16.0006999969482
endloop
endfacet
facet normal -0.999999999999549 -6.80745404340886e-009 9.49701161044241e-007
outer loop
vertex -65.0 -56.1710014343262 23.3661003112793
vertex -65.0 -60.5004005432129 16.0006999969482
vertex -65.0 -62.3884010314941 18.3318996429443
endloop
endfacet
facet normal -0.999999999999549 -6.80745404340886e-009 9.49701161044241e-007
outer loop
vertex -65.0 -60.5004005432129 16.0006999969482
vertex -65.0 -56.1710014343262 23.3661003112793
vertex -65.0 -54.282901763916 21.0352001190186
endloop
endfacet
facet normal -0.999999999999549 -6.80745404340886e-009 9.49701161044241e-007
outer loop
vertex -65.0 55.6743011474609 27.3899002075195
vertex -65.0 60.500301361084 16.0004005432129
vertex -65.0 53.2779006958008 25.5839996337891
endloop
endfacet
facet normal -0.999999999999549 -6.80745404340886e-009 9.49701161044241e-007
outer loop
vertex -65.0 60.500301361084 16.0004005432129
vertex -65.0 55.6743011474609 27.3899002075195
vertex -65.0 62.8960990905762 17.8062992095947
endloop
endfacet
facet normal -0.999999999999549 -6.80745404340886e-009 9.49701161044241e-007
outer loop
vertex -65.0 60.500301361084 16.0004005432129
vertex -65.0 62.8960990905762 17.8062992095947
vertex -65.0 60.5004005432129 3.00009989738464
endloop
endfacet
facet normal -0.999999999999549 -6.80745404340886e-009 9.49701161044241e-007
outer loop
vertex -65.0 -62.3884010314941 18.3318996429443
vertex -65.0000148887567 -63.5001454849636 -3.0000092213739
vertex -65.0 -63.5004005432129 16.0004005432129
endloop
endfacet
facet normal -0.999999999999549 -6.80745404340886e-009 9.49701161044241e-007
outer loop
vertex -65.0000148887567 -63.5001454849636 -3.0000092213739
vertex -65.0 -62.3884010314941 18.3318996429443
vertex -65.0 -60.5004005432129 3.00009989738464
endloop
endfacet
facet normal -0.999999999999549 -6.80745404340886e-009 9.49701161044241e-007
outer loop
vertex -65.0000148887567 -63.5001454849636 -3.0000092213739
vertex -65.0 -60.5004005432129 3.00009989738464
vertex -65.0000471364887 -36.5001506803425 3.96699701609096e-005
endloop
endfacet
facet normal -0.999999999999549 -6.80745404340886e-009 9.49701161044241e-007
outer loop
vertex -65.0000148887567 -63.5001454849636 -3.0000092213739
vertex -65.0000471364887 -36.5001506803425 3.96699701609096e-005
vertex -65.0000159403386 63.4998545147034 -2.99974314123981
endloop
endfacet
facet normal -0.999999999999549 -6.80745404340886e-009 9.49701161044241e-007
outer loop
vertex -65.0 -60.5004005432129 3.00009989738464
vertex -65.0 -62.3884010314941 18.3318996429443
vertex -65.0 -60.5004005432129 16.0006999969482
endloop
endfacet
facet normal -0.999999999999549 -6.80745404340886e-009 9.49701161044241e-007
outer loop
vertex -65.0000471364887 -36.5001506803425 3.96699701609096e-005
vertex -65.0 -60.5004005432129 3.00009989738464
vertex -65.0 -36.5001506803425 3.00007367655451
endloop
endfacet
facet normal -0.999999999999549 -6.80745404340886e-009 9.49701161044241e-007
outer loop
vertex -65.0000159403386 63.4998545147034 -2.99974314123981
vertex -65.0000471364887 -36.5001506803425 3.96699701609096e-005
vertex -65.00004713677 36.4998493194188 0.000204949060708489
endloop
endfacet
facet normal -0.999999999999549 -6.80745404340886e-009 9.49701161044241e-007
outer loop
vertex -65.0000159403386 63.4998545147034 -2.99974314123981
vertex -65.00004713677 36.4998493194188 0.000204949060708489
vertex -65.0 36.4998493194508 3.00006663590138
endloop
endfacet
facet normal -0.999999999999549 -6.80745404340886e-009 9.49701161044241e-007
outer loop
vertex -65.0000159403386 63.4998545147034 -2.99974314123981
vertex -65.0 36.4998493194508 3.00006663590138
vertex -65.0 60.5004005432129 3.00009989738464
endloop
endfacet
facet normal -0.999999999999549 -6.80745404340886e-009 9.49701161044241e-007
outer loop
vertex -65.0000159403386 63.4998545147034 -2.99974314123981
vertex -65.0 60.5004005432129 3.00009989738464
vertex -65.0 62.8960990905762 17.8062992095947
endloop
endfacet
facet normal -0.999999999999549 -6.80745404340886e-009 9.49701161044241e-007
outer loop
vertex -65.0000159403386 63.4998545147034 -2.99974314123981
vertex -65.0 62.8960990905762 17.8062992095947
vertex -65.0 63.5004005432129 16.0004005432129
endloop
endfacet
facet normal 1.07244687291584e-005 1.94821671999827e-006 -0.999999999940595
outer loop
vertex -40.5699961249553 63.4998556188526 -2.99950185167771
vertex -65.0000148887567 -63.5001454849636 -3.0000092213739
vertex -65.0000159403386 63.4998545147034 -2.99974314123981
endloop
endfacet
facet normal 1.07244687291584e-005 1.94821671999827e-006 -0.999999999940595
outer loop
vertex -65.0000148887567 -63.5001454849636 -3.0000092213739
vertex -40.5699961249553 63.4998556188526 -2.99950185167771
vertex -40.5699951715632 -63.5001443808475 -2.99972651296551
endloop
endfacet
facet normal 2.76119636339311e-006 -7.26856521181978e-007 0.999999999995924
outer loop
vertex -40.57 -60.5004005432129 3.0
vertex -65.0 -36.5001506803425 3.00007367655451
vertex -65.0 -60.5004005432129 3.00009989738464
endloop
endfacet
facet normal 2.76119636339311e-006 -7.26856521181978e-007 0.999999999995924
outer loop
vertex -65.0 -36.5001506803425 3.00007367655451
vertex -40.57 -60.5004005432129 3.0
vertex -40.5700000001142 -36.5001506803425 3.00004745572437
endloop
endfacet
facet normal -2.63607525000199e-006 -1.54632428699234e-006 0.99999999999533
outer loop
vertex -65.0000471364887 -36.5001506803425 3.96699701609096e-005
vertex -40.57 36.499849319458 0.000199999994947575
vertex -65.00004713677 36.4998493194188 0.000204949060708489
endloop
endfacet
facet normal -2.63607525000199e-006 -1.54632428699234e-006 0.99999999999533
outer loop
vertex -40.57 36.499849319458 0.000199999994947575
vertex -65.0000471364887 -36.5001506803425 3.96699701609096e-005
vertex -40.57 -36.5001506803425 7.93399403218192e-005
endloop
endfacet
facet normal 1.48251777865152e-011 -0.999999999970898 -7.62923946821768e-006
outer loop
vertex -40.5700000011519 60.5004005429833 3.00023925503685
vertex -65.0 60.500301361084 16.0004005432129
vertex -65.0 60.5004005432129 3.00009989738464
endloop
endfacet
facet normal 1.48251777865152e-011 -0.999999999970898 -7.62923946821768e-006
outer loop
vertex -65.0 60.500301361084 16.0004005432129
vertex -40.5700000011519 60.5004005429833 3.00023925503685
vertex -40.5700000011519 60.500301361084 16.0004005432129
endloop
endfacet
facet normal 0.999999999999998 5.67144805131068e-010 6.81815344465544e-008
outer loop
vertex -40.5699951715632 -63.5001443808475 -2.99972651296551
vertex -40.57 -62.3884010314941 18.3318996429443
vertex -40.57 -63.5004005432129 16.0004005432129
endloop
endfacet
facet normal 0.999999999999998 5.67144805131068e-010 6.81815344465544e-008
outer loop
vertex -40.57 -62.3884010314941 18.3318996429443
vertex -40.5699951715632 -63.5001443808475 -2.99972651296551
vertex -40.57 -60.5004005432129 3.0
endloop
endfacet
facet normal 0.999999999999998 5.67144805131068e-010 6.81815344465544e-008
outer loop
vertex -40.57 -60.5004005432129 3.0
vertex -40.5699951715632 -63.5001443808475 -2.99972651296551
vertex -40.57 -36.5001506803425 7.93399403218192e-005
endloop
endfacet
facet normal 0.999999999999998 5.67144805131068e-010 6.81815344465544e-008
outer loop
vertex -40.57 -36.5001506803425 7.93399403218192e-005
vertex -40.5699951715632 -63.5001443808475 -2.99972651296551
vertex -40.5699961249553 63.4998556188526 -2.99950185167771
endloop
endfacet
facet normal 0.999999999999998 5.67144805131068e-010 6.81815344465544e-008
outer loop
vertex -40.57 -36.5001506803425 7.93399403218192e-005
vertex -40.5699961249553 63.4998556188526 -2.99950185167771
vertex -40.57 36.499849319458 0.000199999994947575
endloop
endfacet
facet normal 0.999999999999998 5.67144805131068e-010 6.81815344465544e-008
outer loop
vertex -40.57 36.499849319458 0.000199999994947575
vertex -40.5699961249553 63.4998556188526 -2.99950185167771
vertex -40.57 36.499849319458 3.00019999999495
endloop
endfacet
facet normal 0.999999999999998 5.67144805131068e-010 6.81815344465544e-008
outer loop
vertex -40.57 36.499849319458 3.00019999999495
vertex -40.5699961249553 63.4998556188526 -2.99950185167771
vertex -40.5700000011519 60.5004005429833 3.00023925503685
endloop
endfacet
facet normal 0.999999999999998 5.67144805131068e-010 6.81815344465544e-008
outer loop
vertex -40.5700000011519 60.5004005429833 3.00023925503685
vertex -40.5699961249553 63.4998556188526 -2.99950185167771
vertex -40.5700000011519 62.8960990905762 17.8062992095947
endloop
endfacet
facet normal 0.999999999999998 5.67144805131068e-010 6.81815344465544e-008
outer loop
vertex -40.5700000011519 62.8960990905762 17.8062992095947
vertex -40.5699961249553 63.4998556188526 -2.99950185167771
vertex -40.5700000011519 63.5004005432129 16.0004005432129
endloop
endfacet
facet normal 0.999999999999998 5.67144805131068e-010 6.81815344465544e-008
outer loop
vertex -40.5700000011519 60.500301361084 16.0004005432129
vertex -40.5700000011519 55.6743011474609 27.3899002075195
vertex -40.5700000011519 53.2779006958008 25.5839996337891
endloop
endfacet
facet normal 0.999999999999998 5.67144805131068e-010 6.81815344465544e-008
outer loop
vertex -40.5700000011519 55.6743011474609 27.3899002075195
vertex -40.5700000011519 60.500301361084 16.0004005432129
vertex -40.5700000011519 62.8960990905762 17.8062992095947
endloop
endfacet
facet normal 0.999999999999998 5.67144805131068e-010 6.81815344465544e-008
outer loop
vertex -40.5700000011519 62.8960990905762 17.8062992095947
vertex -40.5700000011519 60.500301361084 16.0004005432129
vertex -40.5700000011519 60.5004005429833 3.00023925503685
endloop
endfacet
facet normal 0.999999999999998 5.67144805131068e-010 6.81815344465544e-008
outer loop
vertex -40.5700000001142 -36.5001506803425 3.00004745572437
vertex -40.57 -60.5004005432129 3.0
vertex -40.57 -36.5001506803425 7.93399403218192e-005
endloop
endfacet
facet normal 0.999999999999998 5.67144805131068e-010 6.81815344465544e-008
outer loop
vertex -40.57 -62.3884010314941 18.3318996429443
vertex -40.57 -60.5004005432129 16.0006999969482
vertex -40.57 -56.1710014343262 23.3661003112793
endloop
endfacet
facet normal 0.999999999999998 5.67144805131068e-010 6.81815344465544e-008
outer loop
vertex -40.57 -60.5004005432129 16.0006999969482
vertex -40.57 -62.3884010314941 18.3318996429443
vertex -40.57 -60.5004005432129 3.0
endloop
endfacet
facet normal 0.999999999999998 5.67144805131068e-010 6.81815344465544e-008
outer loop
vertex -40.57 -56.1710014343262 23.3661003112793
vertex -40.57 -60.5004005432129 16.0006999969482
vertex -40.57 -54.282901763916 21.0352001190186
endloop
endfacet
facet normal -5.58169762125717e-006 -1.51072624318458e-006 0.999999999983281
outer loop
vertex -40.57 36.499849319458 3.00019999999495
vertex -65.0 60.5004005432129 3.00009989738464
vertex -65.0 36.4998493194508 3.00006663590138
endloop
endfacet
facet normal -5.58169762125717e-006 -1.51072624318458e-006 0.999999999983281
outer loop
vertex -65.0 60.5004005432129 3.00009989738464
vertex -40.57 36.499849319458 3.00019999999495
vertex -40.5700000011519 60.5004005429833 3.00023925503685
endloop
endfacet
facet normal 9.50440235347139e-013 -1.0 5.32784920180728e-012
outer loop
vertex -40.57 36.499849319458 3.00019999999495
vertex -65.00004713677 36.4998493194188 0.000204949060708489
vertex -40.57 36.499849319458 0.000199999994947575
endloop
endfacet
facet normal 9.50440235347139e-013 -1.0 5.32784920180728e-012
outer loop
vertex -65.00004713677 36.4998493194188 0.000204949060708489
vertex -40.57 36.499849319458 3.00019999999495
vertex -65.0 36.4998493194508 3.00006663590138
endloop
endfacet
endsolid individual
